# xmcd
#
# Track frame offsets:
#	150
#	40982
#	69012
#	100012
#	118287
#	135907
#	169480
#	190405
#	210562
#	244927
#
# Disc length: 3593 seconds
# Revision: 0
# Processed by: cddbd v1.5.2PL0 Copyright (c) Steve Scherf et al.
# Submitted via: dBpowerAMP V12.0
#
DISCID=8b0e070a
DTITLE=Chris Farlowe - Live in Berlin
DYEAR=1986
DGENRE=R&B
TTITLE0=Born in West Yorkshire
TTITLE1=Crosscut Saw
TTITLE2=Thrill Is Gone
TTITLE3=Shakey Ground
TTITLE4=Chris' Shuffle
TTITLE5=Ain't No Love
TTITLE6=Closer to You
TTITLE7=Superstitious
TTITLE8=Stormy Monday
TTITLE9=Givin't Up for Your Love
EXTD=
EXTT0=
EXTT1=
EXTT2=
EXTT3=
EXTT4=
EXTT5=
EXTT6=
EXTT7=
EXTT8=
EXTT9=
PLAYORDER=
